<svg xmlns="http://www.w3.org/2000/svg" width="1560.412" height="524.024"><g id="Group_105" data-name="Group 105" transform="translate(-12828.868 -4933.222)"><g id="Group_101" data-name="Group 101" transform="translate(12828.868 4933.222)" fill="#161615"><path id="Path_195" data-name="Path 195" d="M12948.116 5004.883h-119.249v-71.662h320.8v71.662h-118.689v330.875h-82.858z" transform="translate(-12828.867 -4933.222)"/><path id="Path_196" data-name="Path 196" d="M13196.466 5017.722c93.5 0 150.6 59.9 150.6 159s-57.105 159-150.6 159-150.6-59.9-150.6-159 57.104-159 150.6-159zm0 251.375c44.229 0 69.422-33.032 69.422-92.376s-25.193-91.816-69.422-91.816-69.982 32.472-69.982 91.816 25.753 92.379 69.982 92.379z" transform="translate(-12802.891 -4923.106)"/><path id="Path_197" data-name="Path 197" d="M13333.357 4933.222h77.26v211.065l94.616-105.812h95.735l-103.568 110.291 109.731 186.992h-95.176l-71.1-126.527-30.232 32.472v94.056h-77.26z" transform="translate(-12768.475 -4933.222)"/><path id="Path_198" data-name="Path 198" d="M13619.959 5379.371a118.981 118.981 0 0018.475 1.12c31.353 0 47.028-14.556 47.028-44.229a24.832 24.832 0 00-1.68-8.4l-106.933-300.642h87.338l62.7 214.424 61.024-214.424h83.419l-122.049 350.469c-17.355 50.387-38.63 68.3-95.735 68.3a285.39 285.39 0 01-33.591-2.239z" transform="translate(-12739.326 -4921.969)"/><path id="Path_199" data-name="Path 199" d="M13977.945 5017.722c93.5 0 150.6 59.9 150.6 159s-57.1 159-150.6 159-150.6-59.9-150.6-159 57.104-159 150.6-159zm0 251.375c44.229 0 69.422-33.032 69.422-92.376s-25.193-91.816-69.422-91.816-69.982 32.472-69.982 91.816 25.754 92.379 69.982 92.379z" transform="translate(-12709.341 -4923.106)"/></g><g id="Group_102" data-name="Group 102" transform="translate(12954.775 5375.371)" fill="#060607"><path id="Path_200" data-name="Path 200" d="M12960.368 5354.453a161.336 161.336 0 00-15.7-7.291v22.319h-3.354v-38.869l4.517.269c-.045.491-.4.805-1.163.938v13.15l.672-.984a155.262 155.262 0 0116.817 7.471zm-4.7-21.068a38.8 38.8 0 016.174 6.576l-1.7 1.386a37.855 37.855 0 00-6.083-6.53zm5.994-3.846a37.939 37.939 0 016.128 6.53l-1.609 1.387a41.94 41.94 0 00-6.13-6.53z" transform="translate(-12941.313 -5327.928)"/><path id="Path_201" data-name="Path 201" d="M12997.3 5334.77a.924.924 0 01-.58.491 69.209 69.209 0 01-8.947 15.388 164.054 164.054 0 0116.372 15.163l-2.729 2.37a146.111 146.111 0 00-15.7-15.028c-3.937 4.786-10.734 11.315-17.221 15.028a16.868 16.868 0 00-2.326-2.415c12.391-6.8 22.187-19.5 26.212-29.209h-21.964v-3.041h23.707l.582-.224z" transform="translate(-12938.338 -5327.479)"/><path id="Path_202" data-name="Path 202" d="M13038.139 5332.83a1.182 1.182 0 01-1.252.538c-6.8 16.773-17.848 28.672-30.282 35.648a14.237 14.237 0 00-2.506-2.37c12.167-6.71 23.261-18.249 29.656-35.471z" transform="translate(-12933.799 -5327.732)"/><path id="Path_203" data-name="Path 203" d="M13053.378 5330.784l4.339.269c-.045.4-.446.805-1.163.894v7.068h11.942l.673-.268 2.772 1.252a1.3 1.3 0 01-.492.492c-2.059 15.611-8.589 24.691-22.724 29.656a17.749 17.749 0 00-2.058-2.684c13.241-4.562 19.368-12.837 20.935-25.406h-25.049v11.043h-3.176v-14.089h14zm11.183-1.61a35.532 35.532 0 015.1 6.888l-1.835 1.073a38.747 38.747 0 00-4.921-6.8zm6.575-1.074a33.495 33.495 0 015.1 6.843l-1.833 1.119a34.665 34.665 0 00-4.922-6.8z" transform="translate(-12929.574 -5328.1)"/><path id="Path_204" data-name="Path 204" d="M13100.361 5341.722v2.594h-11v17.584h13.507v2.594h-29.879v-2.594h13.508v-17.579h-10.914v-2.594z" transform="translate(-12925.551 -5326.469)"/><path id="Path_205" data-name="Path 205" d="M13106.905 5333.733a55.612 55.612 0 0113.331 6.083l-1.7 2.818a57.078 57.078 0 00-13.062-6.217zm-.179 31c15.88-4.92 26.436-13.82 31.8-26.211a17.437 17.437 0 002.907 1.834c-5.592 12.256-16.5 21.783-31.67 26.838a1.457 1.457 0 01-.624 1.028z" transform="translate(-12921.662 -5327.426)"/><path id="Path_206" data-name="Path 206" d="M13171.785 5338.095a.745.745 0 01-.536.491 58.444 58.444 0 01-6.575 14.806c1.923 1.119 4.114 2.5 5.771 3.713l-1.88 2.951c-1.609-1.251-3.891-2.728-5.769-3.89a42.145 42.145 0 01-16.147 13.6 9.415 9.415 0 00-2.46-2.326 42.424 42.424 0 0015.833-12.882 75.829 75.829 0 00-9.886-4.652l1.7-2.5a75.246 75.246 0 0110.064 4.518 46.041 46.041 0 005.411-11.854h-15.163a48.438 48.438 0 01-10.332 12.3 24.021 24.021 0 00-2.551-2.013c5.86-4.473 11.407-12.525 14.09-20.174l4.251.984c-.18.491-.627.626-1.209.581a93.299 93.299 0 01-2.5 5.323h14.849l.628-.18z" transform="translate(-12917.617 -5327.852)"/><path id="Path_207" data-name="Path 207" d="M13186.135 5334.372h12.615c9.841 0 14.671 5.233 14.671 16.1 0 5.994-1.878 10.511-5.233 13.2-3.131 2.5-6.619 2.863-11.229 2.863h-10.824zm11.809 26.345c6.129 0 8.723-3 8.723-10.243 0-7.157-2.459-10.467-7.916-10.467h-6.13v20.71z" transform="translate(-12912.006 -5327.349)"/><path id="Path_208" data-name="Path 208" d="M13228.786 5333.613c9.616 0 15.744 6.575 15.744 16.952s-6.128 16.953-15.744 16.953-15.7-6.575-15.7-16.953 6.082-16.952 15.7-16.952zm0 28.135c5.634 0 9.034-4.027 9.034-11.183s-3.4-11.182-9.034-11.182c-5.591 0-8.946 4.025-8.946 11.182s3.36 11.183 8.946 11.183z" transform="translate(-12908.78 -5327.44)"/><path id="Path_209" data-name="Path 209" d="M13250.044 5356.7c.493 3.579 2.908 5.188 7.337 5.188 3.892 0 5.813-1.387 5.813-4.071 0-2.952-2.682-3.533-8.587-4.875-2.6-.582-5.01-1.029-7.111-2.371-2.281-1.432-3.489-3.936-3.489-7.291 0-6.217 4.294-9.706 12.389-9.706 7.56 0 11.943 3.756 12.167 10.2h-6.351c-.226-3.131-2.417-4.787-6.4-4.787-3.489 0-5.411 1.432-5.411 3.892 0 3.042 2.46 3.042 7.782 4.384a31.779 31.779 0 017.561 2.5c2.637 1.476 3.934 3.891 3.934 7.2 0 6.62-4.606 10.556-12.926 10.556-8.185 0-12.882-3.98-13.24-10.824z" transform="translate(-12905.139 -5327.445)"/><path id="Path_210" data-name="Path 210" d="M13270.642 5334.372h6.935l13.061 22.1v-22.1h6.53v32.16h-6.844l-13.151-22.1v22.1h-6.53z" transform="translate(-12901.89 -5327.349)"/><path id="Path_211" data-name="Path 211" d="M13313.833 5333.613c9.617 0 15.743 6.575 15.743 16.952s-6.126 16.953-15.743 16.953-15.7-6.575-15.7-16.953 6.083-16.952 15.7-16.952zm0 28.135c5.635 0 9.034-4.027 9.034-11.183s-3.4-11.182-9.034-11.182c-5.591 0-8.945 4.025-8.945 11.182s3.354 11.183 8.945 11.183z" transform="translate(-12898.6 -5327.44)"/><path id="Path_212" data-name="Path 212" d="M13325.956 5334.372h7.335l6.845 24.064 6.977-24.064h7.247l-10.958 32.16h-6.353z" transform="translate(-12895.269 -5327.349)"/><path id="Path_213" data-name="Path 213" d="M13353.467 5334.372h23.351v5.591H13360v6.843h15.389v5.5H13360v8.274h17.625v5.949h-24.155z" transform="translate(-12891.975 -5327.349)"/><path id="Path_214" data-name="Path 214" d="M13378.763 5334.372h6.935l13.061 22.1v-22.1h6.53v32.16h-6.844l-13.151-22.1v22.1h-6.53z" transform="translate(-12888.947 -5327.349)"/><path id="Path_215" data-name="Path 215" d="M13414.412 5340.1h-9.527v-5.725h25.631v5.725h-9.483v26.436h-6.62z" transform="translate(-12885.819 -5327.349)"/><path id="Path_216" data-name="Path 216" d="M13443.611 5334.372l11.585 32.16h-6.935l-2.191-6.62h-12.479l-2.1 6.62h-6.979l11.452-32.16zm-8.276 20.128h8.948l-4.474-13.687z" transform="translate(-12883.471 -5327.349)"/><path id="Path_217" data-name="Path 217" d="M13473.131 5330.1a1.1 1.1 0 01-.982.493 77.017 77.017 0 01-1.969 5.01h16.236v35.158h-3.131v-2.371h-24.377v2.639h-3v-35.426H13467a44.489 44.489 0 002.014-6.307zm10.154 8.455h-24.377v7.156h24.377zm0 9.975h-24.377v7.066h24.377zm-24.377 17h24.377v-7.112h-24.377z" transform="translate(-12879.711 -5327.957)"/><path id="Path_218" data-name="Path 218" d="M13508.375 5362.88h-8.812v8.052h-2.817v-8.052h-8.946v-2.68h8.946v-3.846h-7.2v-15.7h7.2v-3.578h-8.319v-2.684h8.319v-5.01l3.712.224c-.044.313-.267.537-.85.582v4.2h8.142v2.684h-8.142v3.578h7.469v15.7h-7.514v3.846h8.813zm-16.375-19.86v4.339h4.966v-4.339zm0 6.575v4.429h4.966v-4.424zm12.481-2.236v-4.339h-5.146v4.339zm0 6.665v-4.424h-5.146v4.429zm19.188 1.565a57.336 57.336 0 016.128 14.18l-2.772 1.164a35.294 35.294 0 00-.939-3.266c-6.4.716-12.883 1.387-17.132 1.789a.714.714 0 01-.671.582l-1.119-3.578c1.074-.045 2.327-.135 3.624-.225a149.191 149.191 0 003.8-16.5h-6.574v-2.907h21.381v2.907h-11.674a160.88 160.88 0 01-4.072 16.326c3.535-.224 7.516-.536 11.5-.85a70.484 70.484 0 00-4.026-8.5zm3.98-22.9v2.908h-17.488v-2.908z" transform="translate(-12875.895 -5327.947)"/><path id="Path_219" data-name="Path 219" d="M13567.4 5361.41v2.817h-18.964v6.62h-3.042v-6.62h-18.606v-2.817h18.606v-3.848h-13.822v-17.578h13.822v-3.624h-17.354v-2.772h17.354v-4.25l3.937.269c-.045.313-.27.537-.895.626v3.355h17.578v2.772h-17.578v3.624h14.313v17.578h-14.313v3.848zm-32.92-18.876v4.965h10.914v-4.965zm0 12.479h10.914v-5.054h-10.914zm25.227-12.479h-11.271v4.965h11.271zm0 12.479v-5.054h-11.271v5.054z" transform="translate(-12871.228 -5327.952)"/></g><g id="Group_103" data-name="Group 103" transform="translate(13881.517 5381.5)" fill="#060607"><path id="Path_220" data-name="Path 220" d="M13778.5 5340.1h-9.528v-5.725h25.631v5.725h-9.483v26.436h-6.619z" transform="translate(-13768.977 -5333.478)"/><path id="Path_221" data-name="Path 221" d="M13808.341 5333.613c9.617 0 15.744 6.575 15.744 16.952s-6.127 16.953-15.744 16.953-15.7-6.575-15.7-16.953 6.083-16.952 15.7-16.952zm0 28.135c5.636 0 9.035-4.027 9.035-11.183s-3.4-11.182-9.035-11.182c-5.591 0-8.945 4.025-8.945 11.182s3.354 11.183 8.945 11.183z" transform="translate(-13766.143 -5333.568)"/><path id="Path_222" data-name="Path 222" d="M13824.544 5334.372h6.62v13.194l12.568-13.194h8.276l-12.838 13.016 14 19.145h-8.1l-10.467-14.716-3.444 3.4v11.317h-6.62z" transform="translate(-13762.323 -5333.478)"/><path id="Path_223" data-name="Path 223" d="M13861.642 5366.532v-11.987l-11.675-20.173h8.1l6.888 13.866 6.352-13.866h7.561l-10.6 20.173v11.987z" transform="translate(-13759.281 -5333.478)"/><path id="Path_224" data-name="Path 224" d="M13890.489 5333.613c9.618 0 15.746 6.575 15.746 16.952s-6.128 16.953-15.746 16.953-15.7-6.575-15.7-16.953 6.083-16.952 15.7-16.952zm0 28.135c5.636 0 9.037-4.027 9.037-11.183s-3.4-11.182-9.037-11.182c-5.59 0-8.944 4.025-8.944 11.182s3.355 11.183 8.944 11.183z" transform="translate(-13756.31 -5333.568)"/><path id="Path_225" data-name="Path 225" d="M13917.7 5334.372h22.454v5.591h-15.924v7.291h13.955v5.591h-13.955v13.687h-6.53z" transform="translate(-13751.173 -5333.478)"/><path id="Path_226" data-name="Path 226" d="M13940.418 5334.372h15.61c6.978 0 10.334 2.908 10.334 9.125 0 3.936-1.7 6.62-4.786 7.6 3.041 1.074 3.847 3.131 3.979 7.022l.135 3.8c.045 1.879.045 3 1.252 3.623v.984h-7.246a9.469 9.469 0 01-.76-4.025l-.09-3.4c-.135-3.8-1.117-5.1-4.787-5.1h-7.021v12.524h-6.62zm14.4 14.044c3.355 0 4.92-1.3 4.92-4.25 0-2.773-1.521-4.249-4.608-4.249h-8.095v8.5z" transform="translate(-13748.452 -5333.478)"/><path id="Path_227" data-name="Path 227" d="M13984.938 5334.372l11.585 32.16h-6.935l-2.191-6.62h-12.479l-2.1 6.62h-6.977l11.45-32.16zm-8.275 20.128h8.946l-4.474-13.687z" transform="translate(-13745.41 -5333.478)"/><path id="Path_228" data-name="Path 228" d="M13995.487 5334.372h9.8l6.4 24.467 6.307-24.467h9.84v32.16h-6.217v-25.943l-6.53 25.943h-6.755l-6.619-25.943v25.943h-6.218z" transform="translate(-13741.861 -5333.478)"/><path id="Path_229" data-name="Path 229" d="M14029.475 5334.372h23.351v5.591H14036v6.843h15.388v5.5H14036v8.274h17.625v5.949h-24.155z" transform="translate(-13737.791 -5333.478)"/><path id="Path_230" data-name="Path 230" d="M14059.705 5356.7c.493 3.579 2.909 5.188 7.337 5.188 3.893 0 5.815-1.387 5.815-4.071 0-2.952-2.683-3.533-8.588-4.875-2.6-.582-5.01-1.029-7.111-2.371-2.281-1.432-3.489-3.936-3.489-7.291 0-6.217 4.294-9.706 12.389-9.706 7.559 0 11.942 3.756 12.168 10.2h-6.352c-.226-3.131-2.417-4.787-6.4-4.787-3.488 0-5.411 1.432-5.411 3.892 0 3.042 2.46 3.042 7.782 4.384a31.755 31.755 0 017.56 2.5c2.638 1.476 3.936 3.891 3.936 7.2 0 6.62-4.607 10.556-12.927 10.556-8.185 0-12.882-3.98-13.24-10.824z" transform="translate(-13734.955 -5333.573)"/><path id="Path_231" data-name="Path 231" d="M14080.3 5334.372h23.35v5.591h-16.82v6.843h15.389v5.5h-15.389v8.274h17.625v5.949h-24.155z" transform="translate(-13731.707 -5333.478)"/><path id="Path_232" data-name="Path 232" d="M14112.8 5340.1h-9.527v-5.725h25.629v5.725h-9.482v26.436h-6.619z" transform="translate(-13728.958 -5333.478)"/></g><g id="Group_104" data-name="Group 104" transform="translate(14323.211 5164.02)" fill="#060607"><path id="Path_233" data-name="Path 233" d="M14204.42 5154.061h-15.252a45.568 45.568 0 0016.416 8.678 13.857 13.857 0 00-2.059 2.549 54.318 54.318 0 01-4.338-1.745v16.64h-3v-1.431h-22.859v1.61h-2.906v-16.908a40.144 40.144 0 01-5.01 2.236 13.789 13.789 0 00-1.969-2.371 46.2 46.2 0 0016.1-9.259h-14.939v-2.594h10.109a27.423 27.423 0 00-3.4-5.859l2.594-.984a23.255 23.255 0 013.67 6.173l-1.7.671h6.98v-7.559c-5.012.4-10.244.715-15.074.9a10.485 10.485 0 00-.674-2.327c10.783-.491 23.887-1.61 30.955-3.13l2.191 2.415c-.09.089-.223.089-.4.089a2 2 0 01-.492-.045c-3.533.716-8.32 1.342-13.508 1.834v7.828h6.352c-.49-.224-.982-.4-1.3-.538a41.84 41.84 0 004.025-7.156l3.623 1.342q-.2.4-.939.4a66.032 66.032 0 01-3.846 5.949h10.645zm-21.559.447a47.123 47.123 0 01-11.408 8.409h26.438a45.5 45.5 0 01-12.033-8.543v7.694h-3zm.09 15.073v-4.249h-9.619v4.249zm-9.619 2.237v4.473h9.619v-4.473zm22.859-2.237v-4.249h-10.377v4.249zm-10.377 6.71h10.377v-4.473h-10.377z" transform="translate(-14163.447 -5139.345)"/><path id="Path_234" data-name="Path 234" d="M14208.529 5167.378a4.3 4.3 0 004.65 4.294c3.355 0 5.234-2.012 5.234-5.725 0-3.444-1.926-5.591-5.189-5.591a4.63 4.63 0 00-4.115 2.146l-5.637-.313 2.014-16.773h17.98v5.278h-13.551l-.807 6.262a8.3 8.3 0 015.32-1.61c6.266 0 10.424 4.159 10.424 10.288 0 6.709-4.561 11.048-11.674 11.048-6.486 0-10.514-3.534-10.779-9.3z" transform="translate(-14158.784 -5138.618)"/></g></g></svg>